<svg xmlns="http://www.w3.org/2000/svg" width="22.966" height="32.013" viewBox="0 0 22.966 32.013">
    <defs>
        <style>
            .cls-1{fill:#5dd059}
        </style>
    </defs>
    <path id="Caminho_2233" d="M2091.294 1129.762a12.427 12.427 0 0 0-15.623 0c-2.4 2.14-3.671 5.394-3.671 9.41 0 8.747 10.066 19 10.495 19.429a1.392 1.392 0 0 0 1.976 0c.428-.432 10.495-10.682 10.495-19.429 0-4.016-1.266-7.272-3.672-9.41zm-7.813 25.818a53.753 53.753 0 0 1-3.906-4.883c-3.135-4.445-4.791-8.431-4.791-11.525 0-8.711 6.658-9.389 8.7-9.389 8.072 0 8.7 7.187 8.7 9.389-.002 6.128-6.235 13.665-8.703 16.408zm0-22.577a5.628 5.628 0 1 0 5.54 5.628 5.591 5.591 0 0 0-5.538-5.631zm0 8.82a3.193 3.193 0 1 1 3.1-3.192 3.152 3.152 0 0 1-3.098 3.192z" class="cls-1" data-name="Caminho 2233" transform="translate(-2072 -1127)"/>
</svg>
