<svg xmlns="http://www.w3.org/2000/svg" width="59" height="59" viewBox="0 0 59 59">
  <g id="Grupo_8717" data-name="Grupo 8717" transform="translate(-0.219 0.148)">
    <g id="Grupo_8867" data-name="Grupo 8867">
      <g id="Elipse_4" data-name="Elipse 4" transform="translate(0.219 -0.148)" fill="none" stroke="#fff" stroke-width="5">
        <circle cx="29.5" cy="29.5" r="29.5" stroke="none"/>
        <circle cx="29.5" cy="29.5" r="27" fill="none"/>
      </g>
      <g id="Grupo_8866" data-name="Grupo 8866">
        <path id="Caminho_2222" data-name="Caminho 2222" d="M401.976,355.954h0a2.175,2.175,0,0,1,2.175,2.175v7.053a9.239,9.239,0,0,1-18.479,0v-7.053a2.175,2.175,0,0,1,2.175-2.175h0a2.175,2.175,0,0,1,2.175,2.175v7.053a4.89,4.89,0,1,0,9.78,0v-7.053A2.175,2.175,0,0,1,401.976,355.954Z" transform="translate(-364.754 -334.129)" fill="#fff"/>
      </g>
    </g>
  </g>
</svg>
