<svg xmlns="http://www.w3.org/2000/svg" width="93.843" height="117.81" viewBox="0 0 93.843 117.81">
    <defs>
        <style>
            .cls-1,.cls-3{fill:#5dd059}.cls-1{stroke:#fff;stroke-width:33px}.cls-2{fill:#fff}
        </style>
    </defs>
    <g id="Grupo_1091" data-name="Grupo 1091" transform="translate(-1332.003 -491.866)">
        <path id="Caminho_2296" d="M2123.114 1134.318c-5.294-4.719-12.645-7.318-20.694-7.318s-15.4 2.6-20.7 7.318c-6.365 5.67-9.726 14.29-9.726 24.929 0 23.174 26.668 50.328 27.8 51.472a3.69 3.69 0 0 0 5.238 0c1.133-1.145 27.8-28.3 27.8-51.472.01-10.639-3.353-19.259-9.718-24.929zm-20.7 68.4a142.676 142.676 0 0 1-10.349-12.935c-8.3-11.777-12.693-22.335-12.693-30.534 0-23.078 17.64-24.873 23.046-24.873 21.383 0 23.046 19.038 23.046 24.873.003 16.23-16.511 36.2-23.048 43.467zm.006-59.812a14.911 14.911 0 1 0 14.676 14.91 14.811 14.811 0 0 0-14.674-14.916zm0 23.365a8.459 8.459 0 1 1 8.223-8.456 8.35 8.35 0 0 1-8.221 8.455z" class="cls-1" data-name="Caminho 2296" transform="translate(-723.496 -618.634)"/>
        <path id="Caminho_2298" d="M11298.5 534.639l30.122 49.915 13.078-15.054 17.43-34.861-13.863-16.639-24.166-7.527-11.49 7.527z" class="cls-2" data-name="Caminho 2298" transform="translate(-9950.001 4.48)"/>
        <path id="Caminho_2297" d="M2121.722 1134.119c-5.151-4.591-12.3-7.119-20.13-7.119s-14.98 2.528-20.131 7.119c-6.191 5.515-9.461 13.9-9.461 24.249 0 22.542 25.941 48.956 27.045 50.069a3.586 3.586 0 0 0 5.093 0c1.1-1.113 27.045-27.526 27.045-50.069 0-10.349-3.272-18.734-9.461-24.249zm-20.134 66.533a138.462 138.462 0 0 1-10.067-12.583c-8.078-11.456-12.347-21.726-12.347-29.7 0-22.449 17.159-24.194 22.419-24.194 20.8 0 22.417 18.519 22.417 24.194-.001 15.789-16.064 35.214-22.423 42.283zm0-58.181a14.5 14.5 0 1 0 14.278 14.5 14.407 14.407 0 0 0-14.274-14.5zm0 22.728a8.228 8.228 0 1 1 8-8.225 8.123 8.123 0 0 1-7.996 8.226z" class="cls-3" data-name="Caminho 2297" transform="translate(-723.496 -617.246)"/>
    </g>
</svg>
